<?xml version="1.0" encoding="UTF-8" standalone="no"?>
<svg xmlns="http://www.w3.org/2000/svg" width="200" height="200" version="1.0">
  <path fill="silver" d="M3.1479956 199.8792c.1495679-10.76908.2538604-18.29569-.0640501-32.25691 7.0217605-8.7948 31.7398365-12.82827 38.4925555-15.24337 8.71444-6.50454 18.587111-12.04002 27.097627-16.94066 4.699721-2.70621 4.760843-11.98261 4.416853-18.21218-1.561463-8.82241-2.38683-16.4302-8.68544-22.908196-.35234-1.849694-1.38111-6.094044-4.47407-11.638651-2.081456-9.318359-10.285317-20.857314-8.224139-26.776993 5.489139-15.764645.693418-22.171184 4.06413-23.518652 7.687294-3.073046 9.766075-9.79347 16.806894-16.541617C93.149082 11.923669 89.987081 1.4887794 105.35709 3.5044295c19.05051 2.498312 8.55869 5.315303 21.62499 11.9546855 16.05267 8.156856 6.48774 8.983066 21.1423 30.579366 8.70206 12.824135-8.24937 13.698362-3.85734 25.046852 4.05726 10.483324-5.50687 12.2705-10.33211 23.742916-4.62918 11.006341-7.534 14.242451-2.20385 28.749691 4.94966 13.47167 13.16749 7.31628 31.72911 27.49383 4.71311 5.12343 21.64593-1.07836 33.3049 13.88332-.0073 7.66991.16275 18.63581.21518 34.98239-52.25641-.18717-193.8322744-.05828-193.8322744-.05828z"/>
</svg>