<?xml version="1.0" encoding="utf-8"?>
<!-- Generator: Adobe Illustrator 25.4.1, SVG Export Plug-In . SVG Version: 6.00 Build 0)  -->
<svg version="1.1" id="Layer_1" xmlns="http://www.w3.org/2000/svg" xmlns:xlink="http://www.w3.org/1999/xlink" x="0px" y="0px"
	 viewBox="0 0 432 288" style="enable-background:new 0 0 432 288;" xml:space="preserve">
<style type="text/css">
	.st0{fill:#FFFFFF;}
</style>
<rect width="432" height="288"/>
<g>
	<path class="st0" d="M238.3,103.2c0.4,0.2,0.7,0.5,0.9,0.8c0.2,0.4,0.3,0.7,0.3,1.1s-0.1,0.8-0.3,1.1c-0.2,0.4-0.5,0.6-0.9,0.8
		s-0.8,0.3-1.2,0.3s-0.8-0.1-1.2-0.3s-0.7-0.5-0.9-0.8c-0.2-0.4-0.3-0.7-0.3-1.1s0.1-0.8,0.3-1.1c0.2-0.4,0.5-0.6,0.9-0.8
		c0.4-0.2,0.8-0.3,1.2-0.3S237.9,103,238.3,103.2z M238.1,106.8c0.3-0.2,0.5-0.4,0.7-0.7c0.2-0.3,0.3-0.6,0.3-1s-0.1-0.7-0.3-1
		c-0.2-0.3-0.4-0.5-0.7-0.7c-0.3-0.2-0.6-0.3-1-0.3c-0.4,0-0.7,0.1-1,0.3c-0.3,0.2-0.5,0.4-0.7,0.7s-0.3,0.6-0.3,1s0.1,0.7,0.3,1
		s0.4,0.5,0.7,0.7c0.3,0.2,0.6,0.3,1,0.3C237.5,107.1,237.8,107,238.1,106.8z M238.1,105.2c-0.1,0.1-0.2,0.2-0.4,0.3l0.6,1h-0.7
		l-0.6-0.9h-0.5v0.9H236v-2.6h1.3c0.3,0,0.5,0.1,0.7,0.2s0.3,0.3,0.3,0.6C238.3,104.9,238.2,105.1,238.1,105.2z M236.6,105.1h0.6
		c0.2,0,0.3,0,0.3-0.1c0.1-0.1,0.1-0.2,0.1-0.3c0-0.1,0-0.2-0.1-0.3c-0.1-0.1-0.2-0.1-0.3-0.1h-0.6V105.1z"/>
</g>
<g>
	<polygon class="st0" points="174.3,185.1 197,185.1 226.4,161 203.7,161 	"/>
	<polygon class="st0" points="204.9,133 204.9,132.6 204.9,131.7 234.3,107.6 211.7,107.6 188.6,126.7 188.6,132.6 188.6,133 
		188.6,161 204.9,161 	"/>
</g>
<g>
	<path class="st0" d="M226.3,151.9h-3.4v6.1h-2v-6.1h-3.4v-1.7h8.8V151.9z"/>
	<path class="st0" d="M232.7,155.3v2.8h-2v-2.7l-3.8-5.1h2.4l2.4,3.4l2.4-3.4h2.4L232.7,155.3z"/>
	<path class="st0" d="M246.3,158.1h-2.5l-2.8-3.8l-1.9,1.6v2.2h-2v-7.9h2v3.4l4-3.4h2.7l-3.3,2.8L246.3,158.1z"/>
	<path class="st0" d="M253.9,156.6h-4.4l-0.7,1.4h-2.2l3.8-7.9h2.5l3.8,7.9h-2.2L253.9,156.6z M253.2,155.1l-1.4-3.1h-0.1l-1.4,3.1
		H253.2z"/>
	<path class="st0" d="M216.5,154c-0.4-0.4-1.1-0.6-1.9-0.7l-2.9-0.3c-0.4,0-0.7-0.1-0.8-0.2s-0.3-0.3-0.3-0.5c0-0.3,0.2-0.5,0.5-0.7
		c0.3-0.1,0.8-0.2,1.4-0.2c0.7,0,1.2,0.1,1.5,0.3c0.3,0.1,0.5,0.4,0.6,0.7h2.3c-0.1-0.8-0.5-1.4-1.1-1.8c-0.7-0.4-1.8-0.6-3.2-0.6
		c-1.4,0-2.4,0.2-3.1,0.6c-0.7,0.4-1.1,1-1.1,1.9c0,0.7,0.2,1.3,0.6,1.6c0.4,0.3,1.1,0.5,1.9,0.6l2.9,0.3c0.3,0,0.6,0.1,0.8,0.2
		s0.3,0.3,0.3,0.6c0,0.3-0.2,0.6-0.5,0.7s-0.9,0.2-1.6,0.2c-0.7,0-1.3-0.1-1.7-0.3c-0.3-0.2-0.5-0.5-0.6-0.9h-2.3
		c0,0.6,0.2,1.1,0.5,1.5c0.4,0.4,0.9,0.7,1.5,0.9c0.6,0.2,1.5,0.2,2.4,0.2c1,0,1.8-0.1,2.5-0.2c0.7-0.2,1.2-0.4,1.5-0.8
		c0.3-0.4,0.5-0.9,0.5-1.6C217.2,154.9,216.9,154.4,216.5,154z"/>
</g>
<rect x="453.1" width="432" height="288"/>
<g>
	<path class="st0" d="M691.5,103.2c0.4,0.2,0.7,0.5,0.9,0.8c0.2,0.4,0.3,0.7,0.3,1.1s-0.1,0.8-0.3,1.1c-0.2,0.4-0.5,0.6-0.9,0.8
		s-0.8,0.3-1.2,0.3s-0.8-0.1-1.2-0.3s-0.7-0.5-0.9-0.8c-0.2-0.4-0.3-0.7-0.3-1.1s0.1-0.8,0.3-1.1c0.2-0.4,0.5-0.6,0.9-0.8
		c0.4-0.2,0.8-0.3,1.2-0.3S691.1,103,691.5,103.2z M691.3,106.8c0.3-0.2,0.5-0.4,0.7-0.7c0.2-0.3,0.3-0.6,0.3-1s-0.1-0.7-0.3-1
		c-0.2-0.3-0.4-0.5-0.7-0.7c-0.3-0.2-0.6-0.3-1-0.3c-0.4,0-0.7,0.1-1,0.3c-0.3,0.2-0.5,0.4-0.7,0.7s-0.3,0.6-0.3,1s0.1,0.7,0.3,1
		s0.4,0.5,0.7,0.7c0.3,0.2,0.6,0.3,1,0.3C690.6,107.1,690.9,107,691.3,106.8z M691.3,105.2c-0.1,0.1-0.2,0.2-0.4,0.3l0.6,1h-0.7
		l-0.6-0.9h-0.5v0.9h-0.6v-2.6h1.3c0.3,0,0.5,0.1,0.7,0.2s0.3,0.3,0.3,0.6C691.4,104.9,691.4,105.1,691.3,105.2z M689.7,105.1h0.6
		c0.2,0,0.3,0,0.3-0.1c0.1-0.1,0.1-0.2,0.1-0.3c0-0.1,0-0.2-0.1-0.3c-0.1-0.1-0.2-0.1-0.3-0.1h-0.6V105.1z"/>
</g>
<g>
	<polygon class="st0" points="627.4,185.1 650.1,185.1 679.5,161 656.8,161 	"/>
	<polygon class="st0" points="658,133 658,132.6 658,131.7 687.5,107.6 664.8,107.6 641.7,126.7 641.7,132.6 641.7,133 641.7,161 
		658,161 	"/>
</g>
<g>
	<path class="st0" d="M679.5,142.1h-3.4v6.1h-2v-6.1h-3.4v-1.7h8.8V142.1z"/>
	<path class="st0" d="M685.9,145.5v2.8h-2v-2.7l-3.8-5.1h2.4l2.4,3.4l2.4-3.4h2.4L685.9,145.5z"/>
	<path class="st0" d="M699.4,148.2h-2.5l-2.8-3.8l-1.9,1.6v2.2h-2v-7.9h2v3.4l4-3.4h2.7l-3.3,2.8L699.4,148.2z"/>
	<path class="st0" d="M707.1,146.8h-4.4l-0.7,1.4h-2.2l3.8-7.9h2.5l3.8,7.9h-2.2L707.1,146.8z M706.3,145.2l-1.4-3.1h-0.1l-1.4,3.1
		H706.3z"/>
	<path class="st0" d="M669.7,144.1c-0.4-0.4-1.1-0.6-1.9-0.7l-2.9-0.3c-0.4,0-0.7-0.1-0.8-0.2s-0.3-0.3-0.3-0.5
		c0-0.3,0.2-0.5,0.5-0.7c0.3-0.1,0.8-0.2,1.4-0.2c0.7,0,1.2,0.1,1.5,0.3c0.3,0.1,0.5,0.4,0.6,0.7h2.3c-0.1-0.8-0.5-1.4-1.1-1.8
		c-0.7-0.4-1.8-0.6-3.2-0.6c-1.4,0-2.4,0.2-3.1,0.6c-0.7,0.4-1.1,1-1.1,1.9c0,0.7,0.2,1.3,0.6,1.6c0.4,0.3,1.1,0.5,1.9,0.6l2.9,0.3
		c0.3,0,0.6,0.1,0.8,0.2s0.3,0.3,0.3,0.6c0,0.3-0.2,0.6-0.5,0.7s-0.9,0.2-1.6,0.2c-0.7,0-1.3-0.1-1.7-0.3c-0.3-0.2-0.5-0.5-0.6-0.9
		h-2.3c0,0.6,0.2,1.1,0.5,1.5c0.4,0.4,0.9,0.7,1.5,0.9c0.6,0.2,1.5,0.2,2.4,0.2c1,0,1.8-0.1,2.5-0.2c0.7-0.2,1.2-0.4,1.5-0.8
		c0.3-0.4,0.5-0.9,0.5-1.6C670.3,145.1,670.1,144.5,669.7,144.1z"/>
</g>
<g>
	<path class="st0" d="M678.3,151.7h-3.2v5.8h-1.9v-5.8H670V150h8.3V151.7z"/>
	<path class="st0" d="M687.3,150v4.4c0,1.2-0.4,2-1.1,2.5c-0.7,0.5-1.7,0.8-3.1,0.8s-2.4-0.3-3.1-0.8c-0.7-0.5-1.1-1.3-1.1-2.5V150
		h1.9v4.3c0,0.6,0.2,1,0.6,1.3c0.4,0.3,1,0.4,1.7,0.4c0.7,0,1.3-0.1,1.7-0.4c0.4-0.3,0.6-0.7,0.6-1.3V150H687.3z"/>
	<path class="st0" d="M696,150.9c0.7,0.6,1,1.5,1,2.8c0,1.3-0.3,2.2-1,2.8c-0.7,0.6-1.6,0.9-2.9,0.9h-4.6V150h4.6
		C694.3,150,695.3,150.3,696,150.9z M690.3,151.6v4.3h2.3c0.7,0,1.3-0.2,1.7-0.5c0.4-0.3,0.6-0.9,0.6-1.6c0-0.8-0.2-1.3-0.6-1.6
		c-0.4-0.3-0.9-0.5-1.7-0.5H690.3z"/>
	<path class="st0" d="M697.8,157.5V150h1.9v7.4H697.8z"/>
	<path class="st0" d="M708.8,150.8c0.8,0.7,1.2,1.6,1.2,2.9c0,1.3-0.4,2.3-1.2,2.9c-0.8,0.7-2,1-3.5,1c-1.5,0-2.6-0.3-3.5-1
		c-0.8-0.7-1.2-1.6-1.2-2.9c0-1.3,0.4-2.3,1.2-2.9c0.8-0.7,2-1,3.5-1C706.8,149.8,707.9,150.2,708.8,150.8z M707.2,155.5
		c0.5-0.4,0.7-1,0.7-1.7c0-0.8-0.2-1.3-0.7-1.7c-0.5-0.4-1.1-0.6-2-0.6s-1.5,0.2-2,0.6c-0.5,0.4-0.7,1-0.7,1.7
		c0,0.8,0.2,1.3,0.7,1.7c0.5,0.4,1.1,0.6,2,0.6S706.8,155.9,707.2,155.5z"/>
	<path class="st0" d="M669.2,153.6c-0.4-0.3-1-0.6-1.8-0.6l-2.8-0.2c-0.4,0-0.6-0.1-0.8-0.2c-0.2-0.1-0.2-0.3-0.2-0.5
		c0-0.3,0.1-0.5,0.4-0.6c0.3-0.1,0.7-0.2,1.3-0.2c0.6,0,1.1,0.1,1.5,0.2c0.3,0.1,0.4,0.3,0.5,0.6h2.2c-0.1-0.8-0.4-1.4-1.1-1.7
		c-0.7-0.4-1.7-0.6-3-0.6c-1.3,0-2.3,0.2-3,0.5c-0.7,0.4-1,1-1,1.8c0,0.7,0.2,1.2,0.6,1.5c0.4,0.3,1,0.5,1.8,0.6l2.7,0.3
		c0.3,0,0.6,0.1,0.7,0.2c0.2,0.1,0.3,0.3,0.3,0.6c0,0.3-0.2,0.5-0.5,0.7c-0.3,0.2-0.8,0.2-1.5,0.2c-0.7,0-1.2-0.1-1.6-0.3
		c-0.3-0.2-0.5-0.4-0.6-0.8h-2.2c0,0.6,0.2,1.1,0.5,1.4c0.3,0.4,0.8,0.7,1.4,0.8c0.6,0.2,1.4,0.2,2.3,0.2c1,0,1.7-0.1,2.4-0.2
		c0.6-0.1,1.1-0.4,1.4-0.8c0.3-0.4,0.5-0.9,0.5-1.5C669.8,154.5,669.6,154,669.2,153.6z"/>
</g>
</svg>
