<?xml version="1.0" encoding="UTF-8" standalone="no"?>
<!-- Created with Inkscape (http://www.inkscape.org/) -->

<svg
   width="512"
   height="512"
   viewBox="0 0 512 512"
   version="1.1"
   id="svg1"
   inkscape:version="1.3.2 (091e20e, 2023-11-25, custom)"
   sodipodi:docname="styka_studio_512.svg"
   xmlns:inkscape="http://www.inkscape.org/namespaces/inkscape"
   xmlns:sodipodi="http://sodipodi.sourceforge.net/DTD/sodipodi-0.dtd"
   xmlns="http://www.w3.org/2000/svg"
   xmlns:svg="http://www.w3.org/2000/svg">
  <sodipodi:namedview
     id="namedview1"
     pagecolor="#ffffff"
     bordercolor="#000000"
     borderopacity="0.25"
     inkscape:showpageshadow="2"
     inkscape:pageopacity="0.0"
     inkscape:pagecheckerboard="0"
     inkscape:deskcolor="#d1d1d1"
     inkscape:document-units="px"
     inkscape:zoom="2.5019531"
     inkscape:cx="255.80016"
     inkscape:cy="261.99532"
     inkscape:window-width="2496"
     inkscape:window-height="1558"
     inkscape:window-x="-11"
     inkscape:window-y="-11"
     inkscape:window-maximized="1"
     inkscape:current-layer="layer1" />
  <defs
     id="defs1" />
  <g
     inkscape:label="Layer 1"
     inkscape:groupmode="layer"
     id="layer1">
    <g
       id="g19"
       transform="matrix(6.1985472,0,0,6.2287105,-3888.9685,-640.93431)"
       style="fill:#000000">
      <g
         id="g7"
         style="fill:#000000">
	<path
   class="st0"
   d="m 691.5,103.2 c 0.4,0.2 0.7,0.5 0.9,0.8 0.2,0.4 0.3,0.7 0.3,1.1 0,0.4 -0.1,0.8 -0.3,1.1 -0.2,0.4 -0.5,0.6 -0.9,0.8 -0.4,0.2 -0.8,0.3 -1.2,0.3 -0.4,0 -0.8,-0.1 -1.2,-0.3 -0.4,-0.2 -0.7,-0.5 -0.9,-0.8 -0.2,-0.4 -0.3,-0.7 -0.3,-1.1 0,-0.4 0.1,-0.8 0.3,-1.1 0.2,-0.4 0.5,-0.6 0.9,-0.8 0.4,-0.2 0.8,-0.3 1.2,-0.3 0.4,0 0.8,0.1 1.2,0.3 z m -0.2,3.6 c 0.3,-0.2 0.5,-0.4 0.7,-0.7 0.2,-0.3 0.3,-0.6 0.3,-1 0,-0.4 -0.1,-0.7 -0.3,-1 -0.2,-0.3 -0.4,-0.5 -0.7,-0.7 -0.3,-0.2 -0.6,-0.3 -1,-0.3 -0.4,0 -0.7,0.1 -1,0.3 -0.3,0.2 -0.5,0.4 -0.7,0.7 -0.2,0.3 -0.3,0.6 -0.3,1 0,0.4 0.1,0.7 0.3,1 0.2,0.3 0.4,0.5 0.7,0.7 0.3,0.2 0.6,0.3 1,0.3 0.3,0 0.6,-0.1 1,-0.3 z m 0,-1.6 c -0.1,0.1 -0.2,0.2 -0.4,0.3 l 0.6,1 h -0.7 l -0.6,-0.9 h -0.5 v 0.9 h -0.6 v -2.6 h 1.3 c 0.3,0 0.5,0.1 0.7,0.2 0.2,0.1 0.3,0.3 0.3,0.6 0,0.2 0,0.4 -0.1,0.5 z m -1.6,-0.1 h 0.6 c 0.2,0 0.3,0 0.3,-0.1 0.1,-0.1 0.1,-0.2 0.1,-0.3 0,-0.1 0,-0.2 -0.1,-0.3 -0.1,-0.1 -0.2,-0.1 -0.3,-0.1 h -0.6 z"
   id="path7"
   style="fill:#000000" />

</g>
      <g
         id="g8"
         style="fill:#000000">
	<polygon
   class="st0"
   points="656.8,161 627.4,185.1 650.1,185.1 679.5,161 "
   id="polygon7"
   style="fill:#000000" />

	<polygon
   class="st0"
   points="658,132.6 658,131.7 687.5,107.6 664.8,107.6 641.7,126.7 641.7,132.6 641.7,133 641.7,161 658,161 658,133 "
   id="polygon8"
   style="fill:#000000" />

</g>
      <g
         id="g12"
         style="fill:#000000">
	<path
   class="st0"
   d="m 679.5,142.1 h -3.4 v 6.1 h -2 v -6.1 h -3.4 v -1.7 h 8.8 z"
   id="path8"
   style="fill:#000000" />

	<path
   class="st0"
   d="m 685.9,145.5 v 2.8 h -2 v -2.7 l -3.8,-5.1 h 2.4 l 2.4,3.4 2.4,-3.4 h 2.4 z"
   id="path9"
   style="fill:#000000" />

	<path
   class="st0"
   d="m 699.4,148.2 h -2.5 l -2.8,-3.8 -1.9,1.6 v 2.2 h -2 v -7.9 h 2 v 3.4 l 4,-3.4 h 2.7 l -3.3,2.8 z"
   id="path10"
   style="fill:#000000" />

	<path
   class="st0"
   d="m 707.1,146.8 h -4.4 l -0.7,1.4 h -2.2 l 3.8,-7.9 h 2.5 l 3.8,7.9 h -2.2 z m -0.8,-1.6 -1.4,-3.1 h -0.1 l -1.4,3.1 z"
   id="path11"
   style="fill:#000000" />

	<path
   class="st0"
   d="m 669.7,144.1 c -0.4,-0.4 -1.1,-0.6 -1.9,-0.7 l -2.9,-0.3 c -0.4,0 -0.7,-0.1 -0.8,-0.2 -0.1,-0.1 -0.3,-0.3 -0.3,-0.5 0,-0.3 0.2,-0.5 0.5,-0.7 0.3,-0.1 0.8,-0.2 1.4,-0.2 0.7,0 1.2,0.1 1.5,0.3 0.3,0.1 0.5,0.4 0.6,0.7 h 2.3 c -0.1,-0.8 -0.5,-1.4 -1.1,-1.8 -0.7,-0.4 -1.8,-0.6 -3.2,-0.6 -1.4,0 -2.4,0.2 -3.1,0.6 -0.7,0.4 -1.1,1 -1.1,1.9 0,0.7 0.2,1.3 0.6,1.6 0.4,0.3 1.1,0.5 1.9,0.6 l 2.9,0.3 c 0.3,0 0.6,0.1 0.8,0.2 0.2,0.1 0.3,0.3 0.3,0.6 0,0.3 -0.2,0.6 -0.5,0.7 -0.3,0.1 -0.9,0.2 -1.6,0.2 -0.7,0 -1.3,-0.1 -1.7,-0.3 -0.3,-0.2 -0.5,-0.5 -0.6,-0.9 h -2.3 c 0,0.6 0.2,1.1 0.5,1.5 0.4,0.4 0.9,0.7 1.5,0.9 0.6,0.2 1.5,0.2 2.4,0.2 1,0 1.8,-0.1 2.5,-0.2 0.7,-0.2 1.2,-0.4 1.5,-0.8 0.3,-0.4 0.5,-0.9 0.5,-1.6 0,-0.5 -0.2,-1.1 -0.6,-1.5 z"
   id="path12"
   style="fill:#000000" />

</g>
      <g
         id="g18"
         style="fill:#000000">
	<path
   class="st0"
   d="m 678.3,151.7 h -3.2 v 5.8 h -1.9 v -5.8 H 670 V 150 h 8.3 z"
   id="path13"
   style="fill:#000000" />

	<path
   class="st0"
   d="m 687.3,150 v 4.4 c 0,1.2 -0.4,2 -1.1,2.5 -0.7,0.5 -1.7,0.8 -3.1,0.8 -1.4,0 -2.4,-0.3 -3.1,-0.8 -0.7,-0.5 -1.1,-1.3 -1.1,-2.5 V 150 h 1.9 v 4.3 c 0,0.6 0.2,1 0.6,1.3 0.4,0.3 1,0.4 1.7,0.4 0.7,0 1.3,-0.1 1.7,-0.4 0.4,-0.3 0.6,-0.7 0.6,-1.3 V 150 Z"
   id="path14"
   style="fill:#000000" />

	<path
   class="st0"
   d="m 696,150.9 c 0.7,0.6 1,1.5 1,2.8 0,1.3 -0.3,2.2 -1,2.8 -0.7,0.6 -1.6,0.9 -2.9,0.9 h -4.6 V 150 h 4.6 c 1.2,0 2.2,0.3 2.9,0.9 z m -5.7,0.7 v 4.3 h 2.3 c 0.7,0 1.3,-0.2 1.7,-0.5 0.4,-0.3 0.6,-0.9 0.6,-1.6 0,-0.8 -0.2,-1.3 -0.6,-1.6 -0.4,-0.3 -0.9,-0.5 -1.7,-0.5 h -2.3 z"
   id="path15"
   style="fill:#000000" />

	<path
   class="st0"
   d="M 697.8,157.5 V 150 h 1.9 v 7.4 h -1.9 z"
   id="path16"
   style="fill:#000000" />

	<path
   class="st0"
   d="m 708.8,150.8 c 0.8,0.7 1.2,1.6 1.2,2.9 0,1.3 -0.4,2.3 -1.2,2.9 -0.8,0.7 -2,1 -3.5,1 -1.5,0 -2.6,-0.3 -3.5,-1 -0.8,-0.7 -1.2,-1.6 -1.2,-2.9 0,-1.3 0.4,-2.3 1.2,-2.9 0.8,-0.7 2,-1 3.5,-1 1.5,0 2.6,0.4 3.5,1 z m -1.6,4.7 c 0.5,-0.4 0.7,-1 0.7,-1.7 0,-0.8 -0.2,-1.3 -0.7,-1.7 -0.5,-0.4 -1.1,-0.6 -2,-0.6 -0.9,0 -1.5,0.2 -2,0.6 -0.5,0.4 -0.7,1 -0.7,1.7 0,0.8 0.2,1.3 0.7,1.7 0.5,0.4 1.1,0.6 2,0.6 0.9,0 1.6,-0.2 2,-0.6 z"
   id="path17"
   style="fill:#000000" />

	<path
   class="st0"
   d="m 669.2,153.6 c -0.4,-0.3 -1,-0.6 -1.8,-0.6 l -2.8,-0.2 c -0.4,0 -0.6,-0.1 -0.8,-0.2 -0.2,-0.1 -0.2,-0.3 -0.2,-0.5 0,-0.3 0.1,-0.5 0.4,-0.6 0.3,-0.1 0.7,-0.2 1.3,-0.2 0.6,0 1.1,0.1 1.5,0.2 0.3,0.1 0.4,0.3 0.5,0.6 h 2.2 c -0.1,-0.8 -0.4,-1.4 -1.1,-1.7 -0.7,-0.4 -1.7,-0.6 -3,-0.6 -1.3,0 -2.3,0.2 -3,0.5 -0.7,0.4 -1,1 -1,1.8 0,0.7 0.2,1.2 0.6,1.5 0.4,0.3 1,0.5 1.8,0.6 l 2.7,0.3 c 0.3,0 0.6,0.1 0.7,0.2 0.2,0.1 0.3,0.3 0.3,0.6 0,0.3 -0.2,0.5 -0.5,0.7 -0.3,0.2 -0.8,0.2 -1.5,0.2 -0.7,0 -1.2,-0.1 -1.6,-0.3 -0.3,-0.2 -0.5,-0.4 -0.6,-0.8 h -2.2 c 0,0.6 0.2,1.1 0.5,1.4 0.3,0.4 0.8,0.7 1.4,0.8 0.6,0.2 1.4,0.2 2.3,0.2 1,0 1.7,-0.1 2.4,-0.2 0.6,-0.1 1.1,-0.4 1.4,-0.8 0.3,-0.4 0.5,-0.9 0.5,-1.5 0.2,-0.5 0,-1 -0.4,-1.4 z"
   id="path18"
   style="fill:#000000" />

</g>
    </g>
  </g>
</svg>
