<?xml version="1.0" encoding="UTF-8" standalone="no"?>
<!-- Created with Inkscape (http://www.inkscape.org/) -->

<svg
   width="344.73929"
   height="97.097099"
   viewBox="0 0 91.212276 25.690274"
   version="1.1"
   id="svg1"
   inkscape:version="1.3.2 (091e20e, 2023-11-25, custom)"
   sodipodi:docname="styka_logo_web.svg"
   xmlns:inkscape="http://www.inkscape.org/namespaces/inkscape"
   xmlns:sodipodi="http://sodipodi.sourceforge.net/DTD/sodipodi-0.dtd"
   xmlns="http://www.w3.org/2000/svg"
   xmlns:svg="http://www.w3.org/2000/svg">
  <sodipodi:namedview
     id="namedview1"
     pagecolor="#ffffff"
     bordercolor="#000000"
     borderopacity="0.25"
     inkscape:showpageshadow="2"
     inkscape:pageopacity="0.0"
     inkscape:pagecheckerboard="0"
     inkscape:deskcolor="#d1d1d1"
     inkscape:document-units="mm"
     inkscape:zoom="4.0515993"
     inkscape:cx="155.24734"
     inkscape:cy="0.37022417"
     inkscape:window-width="2560"
     inkscape:window-height="1351"
     inkscape:window-x="-9"
     inkscape:window-y="-9"
     inkscape:window-maximized="1"
     inkscape:current-layer="layer1" />
  <defs
     id="defs1" />
  <g
     inkscape:label="Layer 1"
     inkscape:groupmode="layer"
     id="layer1"
     transform="translate(-101.47731,-146.50004)">
    <g
       id="g1" />
    <g
       id="g2"
       transform="matrix(5.5168809,0,0,5.5168809,-421.68751,-659.2404)">
      <g
         id="svg_19"
         transform="matrix(0.26458333,0,0,0.26458333,43.629792,110.30479)"
         style="fill:#000000">
    <path
   class="st0"
   d="m 225.5,137.1 h -3.4 v 6.1 h -2 v -6.1 h -3.4 v -1.7 h 8.8 z"
   id="svg_20"
   style="fill:#000000" />

    <path
   class="st0"
   d="m 231.9,140.5 v 2.8 h -2 v -2.7 l -3.8,-5.1 h 2.4 l 2.4,3.4 2.4,-3.4 h 2.4 z"
   id="svg_21"
   style="fill:#000000" />

    <path
   class="st0"
   d="m 245.4,143.2 h -2.5 l -2.8,-3.8 -1.9,1.6 v 2.2 h -2 v -7.9 h 2 v 3.4 l 4,-3.4 h 2.7 l -3.3,2.8 z"
   id="svg_22"
   style="fill:#000000" />

    <path
   class="st0"
   d="m 253.1,141.8 h -4.4 l -0.7,1.4 h -2.2 l 3.8,-7.9 h 2.5 l 3.8,7.9 h -2.2 z m -0.8,-1.6 -1.4,-3.1 h -0.1 l -1.4,3.1 z"
   id="svg_23"
   style="fill:#000000" />

    <path
   class="st0"
   d="m 215.7,139.1 c -0.4,-0.4 -1.1,-0.6 -1.9,-0.7 l -2.9,-0.3 c -0.4,0 -0.7,-0.1 -0.8,-0.2 -0.1,-0.1 -0.3,-0.3 -0.3,-0.5 0,-0.3 0.2,-0.5 0.5,-0.7 0.3,-0.1 0.8,-0.2 1.4,-0.2 0.7,0 1.2,0.1 1.5,0.3 0.3,0.1 0.5,0.4 0.6,0.7 h 2.3 c -0.1,-0.8 -0.5,-1.4 -1.1,-1.8 -0.7,-0.4 -1.8,-0.6 -3.2,-0.6 -1.4,0 -2.4,0.2 -3.1,0.6 -0.7,0.4 -1.1,1 -1.1,1.9 0,0.7 0.2,1.3 0.6,1.6 0.4,0.3 1.1,0.5 1.9,0.6 l 2.9,0.3 c 0.3,0 0.6,0.1 0.8,0.2 0.2,0.1 0.3,0.3 0.3,0.6 0,0.3 -0.2,0.6 -0.5,0.7 -0.3,0.1 -0.9,0.2 -1.6,0.2 -0.7,0 -1.3,-0.1 -1.7,-0.3 -0.3,-0.2 -0.5,-0.5 -0.6,-0.9 h -2.3 c 0,0.6 0.2,1.1 0.5,1.5 0.4,0.4 0.9,0.7 1.5,0.9 0.6,0.2 1.5,0.2 2.4,0.2 1,0 1.8,-0.1 2.5,-0.2 0.7,-0.2 1.2,-0.4 1.5,-0.8 0.3,-0.4 0.5,-0.9 0.5,-1.6 0,-0.5 -0.2,-1.1 -0.6,-1.5 z"
   id="svg_24"
   style="fill:#000000" />

   </g>
      <g
         id="svg_25"
         transform="matrix(0.26458333,0,0,0.26458333,43.629792,110.30479)"
         style="fill:#000000">
    <path
   class="st0"
   d="m 224.3,146.7 h -3.2 v 5.8 h -1.9 v -5.8 H 216 V 145 h 8.3 z"
   id="svg_26"
   style="fill:#000000" />

    <path
   class="st0"
   d="m 233.3,145 v 4.4 c 0,1.2 -0.4,2 -1.1,2.5 -0.7,0.5 -1.7,0.8 -3.1,0.8 -1.4,0 -2.4,-0.3 -3.1,-0.8 -0.7,-0.5 -1.1,-1.3 -1.1,-2.5 V 145 h 1.9 v 4.3 c 0,0.6 0.2,1 0.6,1.3 0.4,0.3 1,0.4 1.7,0.4 0.7,0 1.3,-0.1 1.7,-0.4 0.4,-0.3 0.6,-0.7 0.6,-1.3 V 145 Z"
   id="svg_27"
   style="fill:#000000" />

    <path
   class="st0"
   d="m 242,145.9 c 0.7,0.6 1,1.5 1,2.8 0,1.3 -0.3,2.2 -1,2.8 -0.7,0.6 -1.6,0.9 -2.9,0.9 h -4.6 V 145 h 4.6 c 1.2,0 2.2,0.3 2.9,0.9 z m -5.7,0.7 v 4.3 h 2.3 c 0.7,0 1.3,-0.2 1.7,-0.5 0.4,-0.3 0.6,-0.9 0.6,-1.6 0,-0.8 -0.2,-1.3 -0.6,-1.6 -0.4,-0.3 -0.9,-0.5 -1.7,-0.5 h -2.3 z"
   id="svg_28"
   style="fill:#000000" />

    <path
   class="st0"
   d="M 243.8,152.5 V 145 h 1.9 v 7.4 h -1.9 z"
   id="svg_29"
   style="fill:#000000" />

    <path
   class="st0"
   d="m 254.8,145.8 c 0.8,0.7 1.2,1.6 1.2,2.9 0,1.3 -0.4,2.3 -1.2,2.9 -0.8,0.7 -2,1 -3.5,1 -1.5,0 -2.6,-0.3 -3.5,-1 -0.8,-0.7 -1.2,-1.6 -1.2,-2.9 0,-1.3 0.4,-2.3 1.2,-2.9 0.8,-0.7 2,-1 3.5,-1 1.5,0 2.6,0.4 3.5,1 z m -1.6,4.7 c 0.5,-0.4 0.7,-1 0.7,-1.7 0,-0.8 -0.2,-1.3 -0.7,-1.7 -0.5,-0.4 -1.1,-0.6 -2,-0.6 -0.9,0 -1.5,0.2 -2,0.6 -0.5,0.4 -0.7,1 -0.7,1.7 0,0.8 0.2,1.3 0.7,1.7 0.5,0.4 1.1,0.6 2,0.6 0.9,0 1.6,-0.2 2,-0.6 z"
   id="svg_30"
   style="fill:#000000" />

    <path
   class="st0"
   d="m 215.2,148.6 c -0.4,-0.3 -1,-0.6 -1.8,-0.6 l -2.8,-0.2 c -0.4,0 -0.6,-0.1 -0.8,-0.2 -0.2,-0.1 -0.2,-0.3 -0.2,-0.5 0,-0.3 0.1,-0.5 0.4,-0.6 0.3,-0.1 0.7,-0.2 1.3,-0.2 0.6,0 1.1,0.1 1.5,0.2 0.3,0.1 0.4,0.3 0.5,0.6 h 2.2 c -0.1,-0.8 -0.4,-1.4 -1.1,-1.7 -0.7,-0.4 -1.7,-0.6 -3,-0.6 -1.3,0 -2.3,0.2 -3,0.5 -0.7,0.4 -1,1 -1,1.8 0,0.7 0.2,1.2 0.6,1.5 0.4,0.3 1,0.5 1.8,0.6 l 2.7,0.3 c 0.3,0 0.6,0.1 0.7,0.2 0.2,0.1 0.3,0.3 0.3,0.6 0,0.3 -0.2,0.5 -0.5,0.7 -0.3,0.2 -0.8,0.2 -1.5,0.2 -0.7,0 -1.2,-0.1 -1.6,-0.3 -0.3,-0.2 -0.5,-0.4 -0.6,-0.8 h -2.2 c 0,0.6 0.2,1.1 0.5,1.4 0.3,0.4 0.8,0.7 1.4,0.8 0.6,0.2 1.4,0.2 2.3,0.2 1,0 1.7,-0.1 2.4,-0.2 0.6,-0.1 1.1,-0.4 1.4,-0.8 0.3,-0.4 0.5,-0.9 0.5,-1.5 0.2,-0.5 0,-1 -0.4,-1.4 z"
   id="svg_31"
   style="fill:#000000" />

   </g>
      <g
         id="svg_16"
         transform="matrix(0.05965309,0,0,0.05965309,84.485973,139.94315)"
         style="fill:#000000">
    <polygon
   class="st0"
   id="svg_17"
   points="196.09998,180.10001 225.5,156 202.79999,156 173.40002,180.10001 "
   style="fill:#000000" />

    <polygon
   class="st0"
   id="svg_18"
   points="204,156 204,128 204,127.60001 204,126.7 233.5,102.59999 210.79999,102.59999 187.70001,121.7 187.70001,127.60001 187.70001,128 187.70001,156 "
   style="fill:#000000" />

   </g>
    </g>
  </g>
</svg>
